<svg width="42" height="42" viewBox="0 0 42 42" fill="none" xmlns="http://www.w3.org/2000/svg">
<g clip-path="url(#clip0_1_1327)">
<path d="M30.24 21C30.24 21.462 29.862 21.84 29.4 21.84H21.84V29.4C21.84 29.862 21.462 30.24 21 30.24C20.538 30.24 20.16 29.862 20.16 29.4V21.84H12.6C12.138 21.84 11.76 21.462 11.76 21C11.76 20.538 12.138 20.16 12.6 20.16H20.16V12.6C20.16 12.138 20.538 11.76 21 11.76C21.462 11.76 21.84 12.138 21.84 12.6V20.16H29.4C29.862 20.16 30.24 20.538 30.24 21ZM36.96 21C36.96 29.82 29.82 36.96 21 36.96C12.18 36.96 5.04004 29.82 5.04004 21C5.04004 12.18 12.18 5.04004 21 5.04004C29.82 5.04004 36.96 12.18 36.96 21ZM35.28 21C35.28 13.104 28.896 6.72004 21 6.72004C13.104 6.72004 6.72004 13.104 6.72004 21C6.72004 28.896 13.104 35.28 21 35.28C28.896 35.28 35.28 28.896 35.28 21Z" fill="black"/>
<path d="M631.68 -508.2V199.08H-117.6V-508.2H631.68ZM635.04 -511.56H-120.96V202.44H635.04V-511.56Z" fill="#0000FF"/>
</g>
<defs>
<clipPath id="clip0_1_1327">
<rect width="42" height="42" fill="white"/>
</clipPath>
</defs>
</svg>
