<svg width="20" height="25" viewBox="0 0 20 25" fill="none" xmlns="http://www.w3.org/2000/svg">
<path fill-rule="evenodd" clip-rule="evenodd" d="M14.4053 5.33022C14.2101 5.07294 14.0661 4.78419 13.9806 4.49084C13.4431 2.64596 11.7385 1.3 9.72284 1.3C7.70723 1.3 6.0026 2.64596 5.46509 4.49084C5.37962 4.78419 5.23558 5.07294 5.04035 5.33022H14.4053ZM1.3 6.63022V23.132H18.1459V6.63022H1.3ZM4.21698 4.1272C4.07647 4.6095 3.66129 4.98612 3.15894 4.98612H1C0.447715 4.98612 0 5.43384 0 5.98612V23.432C0 23.9843 0.447714 24.432 0.999999 24.432H18.4459C18.9982 24.432 19.4459 23.9843 19.4459 23.432V5.98612C19.4459 5.43384 18.9982 4.98612 18.4459 4.98612H16.2867C15.7844 4.98612 15.3692 4.6095 15.2287 4.1272C14.5339 1.74249 12.3319 0 9.72284 0C7.11381 0 4.91177 1.74249 4.21698 4.1272Z" fill="#FFE2E2"/>
</svg>
