<svg width="25" height="25" viewBox="0 0 25 25" fill="none" xmlns="http://www.w3.org/2000/svg">
<path fill-rule="evenodd" clip-rule="evenodd" d="M17.1824 5.89819C16.9872 5.64091 16.8432 5.35216 16.7577 5.05881C16.2202 3.21393 14.5156 1.86797 12.4999 1.86797C10.4843 1.86797 8.7797 3.21393 8.24219 5.05881C8.15672 5.35216 8.01268 5.64091 7.81745 5.89819H17.1824ZM4.0771 7.19819V23.7H20.923V7.19819H4.0771ZM6.99408 4.69517C6.85357 5.17747 6.43839 5.55409 5.93604 5.55409H3.7771C3.22481 5.55409 2.7771 6.00181 2.7771 6.55409V24C2.7771 24.5523 3.22481 25 3.7771 25H21.223C21.7753 25 22.223 24.5523 22.223 24V6.55409C22.223 6.00181 21.7753 5.55409 21.223 5.55409H19.0638C18.5615 5.55409 18.1463 5.17747 18.0058 4.69517C17.311 2.31046 15.109 0.56797 12.4999 0.56797C9.89091 0.56797 7.68887 2.31046 6.99408 4.69517Z" fill="black"/>
</svg>
