<svg width="62" height="62" viewBox="0 0 62 62" fill="none" xmlns="http://www.w3.org/2000/svg">
<path d="M58.8374 51.9553H20.2023C19.6004 51.9553 19.1125 51.4674 19.1125 50.8654C19.1125 50.2635 19.6004 49.7756 20.2023 49.7756H58.8374C59.4393 49.7756 59.9272 50.2635 59.9272 50.8654C59.9272 51.4674 59.4393 51.9553 58.8374 51.9553ZM58.8374 32.1324H20.2023C19.6004 32.1324 19.1125 31.6445 19.1125 31.0425C19.1125 30.4406 19.6004 29.9527 20.2023 29.9527H58.8374C59.4393 29.9527 59.9272 30.4406 59.9272 31.0425C59.9272 31.6445 59.4393 32.1324 58.8374 32.1324ZM58.8374 12.31H20.2023C19.6004 12.31 19.1125 11.8221 19.1125 11.2202C19.1125 10.6182 19.6004 10.1303 20.2023 10.1303H58.8374C59.4393 10.1303 59.9272 10.6182 59.9272 11.2202C59.9272 11.8221 59.4393 12.31 58.8374 12.31ZM8.33161 17.3979C4.92476 17.3979 2.15317 14.6266 2.15317 11.2202C2.15317 7.81334 4.92476 5.04175 8.33161 5.04175C11.7381 5.04175 14.5095 7.81346 14.5095 11.2202C14.5095 14.6266 11.7381 17.3979 8.33161 17.3979ZM8.33161 7.22144C6.12674 7.22144 4.33285 9.0152 4.33285 11.2202C4.33285 13.4247 6.12662 15.2182 8.33161 15.2182C10.5362 15.2182 12.3298 13.4247 12.3298 11.2202C12.3298 9.0152 10.5362 7.22144 8.33161 7.22144ZM8.33161 37.2208C4.92476 37.2208 2.15317 34.4492 2.15317 31.0425C2.15317 27.6358 4.92476 24.8641 8.33161 24.8641C11.7381 24.8641 14.5095 27.6358 14.5095 31.0425C14.5095 34.4492 11.7381 37.2208 8.33161 37.2208ZM8.33161 27.0436C6.12674 27.0436 4.33285 28.8374 4.33285 31.0424C4.33285 33.2473 6.12662 35.041 8.33161 35.041C10.5362 35.041 12.3298 33.2473 12.3298 31.0424C12.3298 28.8375 10.5362 27.0436 8.33161 27.0436ZM8.33161 57.043C4.92476 57.043 2.15317 54.2717 2.15317 50.8653C2.15317 47.4585 4.92476 44.687 8.33161 44.687C11.7381 44.687 14.5095 47.4586 14.5095 50.8653C14.5095 54.2718 11.7381 57.043 8.33161 57.043ZM8.33161 46.8667C6.12674 46.8667 4.33285 48.6604 4.33285 50.8653C4.33285 53.0698 6.12662 54.8633 8.33161 54.8633C10.5362 54.8633 12.3298 53.0698 12.3298 50.8653C12.3298 48.6606 10.5362 46.8667 8.33161 46.8667Z" fill="#6B8B3D"/>
</svg>
