<svg width="25" height="25" viewBox="0 0 25 25" fill="none" xmlns="http://www.w3.org/2000/svg">
<path d="M22.3491 6.8069L22.3548 6.8174L22.3608 6.8277C22.5926 7.22332 22.7678 7.64948 22.8813 8.09374L22.882 8.09651C23.0025 8.56019 23.0599 9.03801 23.0525 9.51704L23.0524 9.52463L23.0524 9.53222C23.0582 10.4399 22.8192 11.3323 22.3607 12.1156L22.3562 12.1233L22.3519 12.1311C22.1277 12.5374 21.8427 12.9124 21.5097 13.2399L21.5096 13.2399L21.5054 13.2441L12.501 22.2485L3.49659 13.2441L3.49468 13.2422C3.15889 12.9089 2.86828 12.5331 2.63028 12.1243C2.41008 11.7244 2.23846 11.2997 2.11906 10.8591C2.0062 10.4249 1.9496 9.97741 1.9496 9.5278H1.94969L1.94952 9.51711C1.94221 9.03804 1.99955 8.56018 2.12 8.09644L2.12005 8.09645L2.12191 8.08892C2.34665 7.18249 2.82045 6.357 3.48977 5.70574L3.4898 5.70578L3.49575 5.69985C3.98873 5.20852 4.57242 4.8176 5.21442 4.5488C6.50483 4.01986 7.9515 4.01967 9.24202 4.54823C9.83917 4.80145 10.3889 5.1542 10.8678 5.59135L10.9185 5.65217L10.9388 5.67657L10.9613 5.69902L12.006 6.74379L12.501 7.23877L12.996 6.74379L14.0408 5.69902L14.0632 5.67657L14.0835 5.65218L14.1342 5.59136C14.6131 5.1542 15.1628 4.80145 15.76 4.54823C17.0505 4.01967 18.4972 4.01986 19.7876 4.54879C20.4296 4.81759 21.0133 5.20851 21.5063 5.69985L21.5062 5.69992L21.5143 5.70777C21.8474 6.02913 22.1289 6.39985 22.3491 6.8069Z" stroke="black" stroke-width="1.4"/>
</svg>
