<svg width="15" height="15" viewBox="0 0 15 15" fill="none" xmlns="http://www.w3.org/2000/svg">
<path d="M7.5 13.0547L7.28906 12.7969C7.14844 12.6094 3.5625 8.41406 3.5625 5.90625C3.5625 3.72656 5.34375 1.96875 7.5 1.96875C9.65625 1.96875 11.4375 3.75 11.4375 5.90625C11.4375 8.41406 7.85156 12.6328 7.71094 12.7969L7.5 13.0547ZM7.5 2.50781C5.625 2.50781 4.125 4.03125 4.125 5.88281C4.125 7.85156 6.72656 11.2031 7.5 12.1641C8.27344 11.2031 10.875 7.875 10.875 5.88281C10.875 4.03125 9.375 2.50781 7.5 2.50781Z" fill="#6B8B3D"/>
<path d="M7.5 7.40625C6.67969 7.40625 6 6.72656 6 5.90625C6 5.08594 6.67969 4.40625 7.5 4.40625C8.32031 4.40625 9 5.08594 9 5.90625C9 6.72656 8.32031 7.40625 7.5 7.40625ZM7.5 4.96875C6.98437 4.96875 6.5625 5.39063 6.5625 5.90625C6.5625 6.42188 6.98437 6.84375 7.5 6.84375C8.01562 6.84375 8.4375 6.42188 8.4375 5.90625C8.4375 5.39063 8.01562 4.96875 7.5 4.96875Z" fill="#6B8B3D"/>
</svg>
