<svg width="76" height="76" viewBox="0 0 76 76" fill="none" xmlns="http://www.w3.org/2000/svg">
<path d="M60.8365 49.5629C60.5318 48.527 60.9736 47.4149 61.9029 46.8665L64.7517 45.2059L73.283 40.2395C74.8674 39.3102 74.8369 37.0251 73.2221 36.1415L63.3349 30.7485L62.2228 30.1391C61.2783 29.6211 60.806 28.5243 61.0803 27.4731L61.9182 24.2891L64.4318 14.7524C64.9041 12.9852 63.2435 11.3856 61.4916 11.9036L50.6904 15.0876L49.4717 15.4379C48.4357 15.7426 47.3236 15.3008 46.7752 14.3715L45.1146 11.5227L40.133 2.91529C39.2342 1.36138 36.9795 1.34615 36.0654 2.91529L31.0838 11.4618L29.4232 14.3106C28.8748 15.2399 27.7627 15.6817 26.7268 15.377L25.508 15.0266L14.7068 11.8426C12.9549 11.3247 11.2943 12.9243 11.7666 14.7067L14.2803 24.2434L15.1182 27.4274C15.3924 28.4786 14.9201 29.5754 13.9756 30.0934L12.8635 30.7028L2.97636 36.0958C1.36152 36.9793 1.33105 39.2645 2.91542 40.1938L11.4467 45.1602L14.2955 46.8208C15.2248 47.3692 15.6666 48.4813 15.3619 49.5172L15.0115 50.736L11.8275 61.5372C11.3096 63.2891 12.9092 64.9497 14.6764 64.4774L24.2283 61.9637L27.4123 61.1258C28.4635 60.8516 29.5603 61.3239 30.0783 62.2684L30.6877 63.3805L36.0502 73.1762C36.949 74.8063 39.2799 74.8063 40.1787 73.1762L45.5412 63.4415L46.1506 62.3293C46.6685 61.3848 47.7654 60.9126 48.8166 61.1868L52.0006 62.0247L61.5373 64.5383C63.3045 65.0106 64.9041 63.35 64.3861 61.5981L61.2021 50.7969L60.8365 49.5629Z" stroke="#6B8B3D" stroke-width="2.28516" stroke-miterlimit="10" stroke-linecap="round" stroke-linejoin="round"/>
<path d="M59.115 34.2523C57.3021 24.2586 48.5576 16.6719 38.0306 16.6719C27.6713 16.6719 19.0334 24.0148 17.0377 33.7801M17.4795 44.2156C20.115 53.082 28.3111 59.5414 38.0306 59.5414C47.7502 59.5414 55.9463 53.082 58.5818 44.2156" stroke="#6B8B3D" stroke-width="2.28516" stroke-miterlimit="10" stroke-linecap="round" stroke-linejoin="round"/>
<path d="M22.7505 43.3168V31.6016L28.6006 43.3168V31.6016" stroke="#6B8B3D" stroke-width="2.28516" stroke-miterlimit="10" stroke-linecap="round" stroke-linejoin="round"/>
<path d="M32.9877 31.6016V43.3168H38.853H32.9877V38.9141V37.4516H38.853H32.9877V31.6016Z" stroke="#6B8B3D" stroke-width="2.28516" stroke-miterlimit="10" stroke-linecap="round" stroke-linejoin="round"/>
<path d="M38.853 31.6016H32.9877" stroke="#6B8B3D" stroke-width="2.28516" stroke-miterlimit="10" stroke-linecap="round" stroke-linejoin="round"/>
<path d="M41.778 31.6016L44.703 43.3168L47.628 37.4516L50.553 43.3168L53.478 31.6016" stroke="#6B8B3D" stroke-width="2.28516" stroke-miterlimit="10" stroke-linecap="round" stroke-linejoin="round"/>
</svg>
