<svg width="18" height="16" viewBox="0 0 18 16" fill="none" xmlns="http://www.w3.org/2000/svg">
<path d="M16.8756 3.8584L16.8766 3.86232C16.9635 4.20026 17.0049 4.54862 16.9995 4.89792L16.9994 4.90865L16.9994 4.91937C17.0036 5.5775 16.8321 6.22395 16.504 6.79063L16.4977 6.80155L16.4917 6.81263C16.3325 7.10439 16.1298 7.37397 15.8931 7.60921L15.8931 7.60919L15.8871 7.61524L9 14.578L2.11286 7.61524L2.11286 7.61523L2.11015 7.61251C1.86976 7.37134 1.66128 7.09921 1.49017 6.80293C1.33194 6.51159 1.20833 6.2021 1.12206 5.88093C1.04124 5.56582 1.00056 5.2405 1.00056 4.91313V4.90558L1.00045 4.89803C0.995171 4.54866 1.03654 4.20023 1.12338 3.86222L1.12344 3.86223L1.12606 3.85157C1.28699 3.19538 1.62594 2.59915 2.10318 2.12969L2.10323 2.12975L2.11168 2.12123C2.46572 1.76449 2.88427 1.48115 3.34384 1.28638C4.26574 0.904816 5.29834 0.904541 6.2204 1.28555C6.64168 1.4665 7.03071 1.71705 7.37154 2.0272L7.39269 2.05286L7.42151 2.08782L7.45338 2.12004L8.28904 2.96488L9 3.68364L9.71095 2.96488L10.5466 2.12004L10.5785 2.08782L10.6073 2.05286L10.6285 2.0272C10.9693 1.71705 11.3583 1.4665 11.7796 1.28555C12.7016 0.904543 13.7342 0.904814 14.6561 1.28637C15.1157 1.48115 15.5343 1.76449 15.8883 2.12123L15.894 2.12697L15.8998 2.13261C16.134 2.36111 16.3324 2.62507 16.4878 2.91538L16.4957 2.93033L16.5042 2.94499C16.6695 3.23016 16.7946 3.53761 16.8756 3.8584Z" stroke="#C4C4C4" stroke-width="2"/>
</svg>
