<svg width="71" height="71" viewBox="0 0 71 71" fill="none" xmlns="http://www.w3.org/2000/svg">
<path d="M67.8938 8.43115H7.76562C6.10156 8.43115 4.65937 9.7624 4.65937 11.5374V12.4249H3.10625C1.44219 12.4249 0 13.7562 0 15.5312V49.589C0 51.253 1.33125 52.6952 3.10625 52.6952H22.4094L19.6359 57.5765C18.6375 59.5733 19.0812 61.1265 19.8578 61.7921C20.4125 62.2358 20.9672 62.5687 21.7437 62.5687C22.4094 62.5687 23.075 62.3468 23.8516 61.903L37.3859 52.5843H39.7156L47.4813 57.9093C48.1469 58.353 48.8125 58.464 49.4781 58.464C50.1437 58.464 50.8094 58.2421 51.3641 57.6874C52.1406 56.9108 52.6953 55.3577 51.5859 53.3608L51.0312 52.4733H63.2344C64.8984 52.4733 66.3406 51.1421 66.3406 49.3671V48.4796H67.8938C69.5578 48.4796 71 47.1483 71 45.3733V11.5374C71 9.7624 69.6688 8.43115 67.8938 8.43115ZM49.5891 54.6921C50.0328 55.5796 50.0328 56.1343 49.8109 56.3562C49.5891 56.578 49.1453 56.578 48.5906 56.2452L43.4875 52.6952H48.5906L49.5891 54.6921ZM64.2328 49.589C64.2328 50.1437 63.7891 50.4765 63.3453 50.4765H36.6094C36.4984 50.4765 36.4984 50.4765 36.3875 50.5874H36.2766L22.5203 60.0171C21.8547 60.3499 21.4109 60.3499 21.3 60.239C21.0781 60.0171 21.0781 59.3515 21.4109 58.5749L25.1828 52.0296V51.9187C25.1828 51.8077 25.1828 51.8077 25.2937 51.6968V51.0312C25.2937 50.9202 25.1828 50.9202 25.1828 50.8093C25.1828 50.6983 25.0719 50.6983 25.0719 50.6983C25.0719 50.5874 24.9609 50.5874 24.85 50.5874L24.7391 50.4765H24.6281C24.5172 50.4765 24.5172 50.4765 24.4062 50.3655H2.99531C2.44062 50.3655 2.10781 49.9218 2.10781 49.478V15.4202C2.10781 14.8655 2.55156 14.5327 2.99531 14.5327H63.2344C63.7891 14.5327 64.1219 14.9765 64.1219 15.4202V49.589H64.2328ZM68.8922 45.5952C68.8922 46.1499 68.4484 46.4827 68.0047 46.4827H66.4516V15.4202C66.4516 13.7562 65.1203 12.314 63.3453 12.314H6.76719V11.4265C6.76719 10.8718 7.21094 10.539 7.65469 10.539H67.8938C68.4484 10.539 68.7812 10.9827 68.7812 11.4265V45.5952H68.8922Z" fill="#6B8B3D"/>
<path d="M50.4766 21.8545H15.8641C15.3094 21.8545 14.7547 22.2982 14.7547 22.9639C14.7547 23.6295 15.1984 24.0732 15.8641 24.0732H50.5875C51.1422 24.0732 51.6969 23.6295 51.6969 22.9639C51.6969 22.2982 51.1422 21.8545 50.4766 21.8545ZM50.4766 32.3936H15.8641C15.3094 32.3936 14.7547 32.8373 14.7547 33.5029C14.7547 34.1686 15.1984 34.6123 15.8641 34.6123H50.5875C51.1422 34.6123 51.6969 34.1686 51.6969 33.5029C51.6969 32.8373 51.1422 32.3936 50.4766 32.3936ZM50.4766 41.0467H15.8641C15.3094 41.0467 14.7547 41.4904 14.7547 42.1561C14.7547 42.7107 15.1984 43.2654 15.8641 43.2654H50.5875C51.1422 43.2654 51.6969 42.8217 51.6969 42.1561C51.5859 41.6014 51.1422 41.0467 50.4766 41.0467Z" fill="#6B8B3D"/>
</svg>
