<svg width="66" height="76" viewBox="0 0 66 76" fill="none" xmlns="http://www.w3.org/2000/svg">
<path d="M63.9194 43.1404L56.8601 38.3026L61.2969 30.9844C61.9925 29.8368 62.0957 28.6399 61.5798 27.7004C61.0639 26.7609 59.9986 26.2056 58.6569 26.1769L50.101 25.9937L49.8066 17.4407C49.7304 15.2214 48.3293 14.228 46.9746 14.228C46.8544 14.228 46.7337 14.2353 46.6125 14.2495C47.3568 11.8427 47.7463 9.49773 47.7309 7.42819C47.7061 4.09579 46.6234 1.79151 44.6823 0.939837C42.8553 0.138157 40.5244 0.855524 38.1195 2.9601C36.0138 4.80265 33.994 7.55601 32.4207 10.7244C31.5081 10.8725 30.6754 11.5083 30.0914 12.5196L25.8126 19.931L18.174 16.072C17.5647 15.7642 16.9643 15.6081 16.3896 15.6081C15.6173 15.6081 14.9148 15.9014 14.4113 16.4338C13.8093 17.0703 13.5234 17.9837 13.5844 19.075L14.0617 27.6195L5.55692 28.5726C4.22328 28.722 3.21227 29.3711 2.78305 30.3532C2.35378 31.3354 2.56437 32.5182 3.36066 33.5984L8.43837 40.487L1.84338 45.9412C0.809214 46.7965 0.318615 47.8931 0.4972 48.95C0.675839 50.0068 1.49968 50.8813 2.75726 51.3492L10.778 54.3335L8.24554 62.5083C7.88337 63.6776 8.0031 64.7545 8.58258 65.5406C9.11042 66.2567 9.95863 66.651 10.971 66.651C11.2907 66.651 11.6273 66.6114 11.9714 66.5333L20.3169 64.639L22.6737 72.8662C23.1182 74.4179 24.2102 75.3818 25.5236 75.3818C26.3899 75.3818 27.2446 74.9712 27.9952 74.1944L33.9415 68.0399L40.4181 73.6339C41.1536 74.2691 41.9575 74.6049 42.7431 74.6049C44.1775 74.6049 45.2716 73.5423 45.5983 71.8318L47.2044 63.426L55.6869 64.561C55.8973 64.5895 56.1093 64.6041 56.3216 64.6046H56.322C57.4557 64.6046 58.3747 64.1646 58.9098 63.3658C59.4777 62.5179 59.5221 61.3996 59.0351 60.2167L55.7767 52.3035L63.4962 48.6088C64.7067 48.0295 65.4483 47.0843 65.531 46.0156C65.6138 44.9469 65.0263 43.899 63.9194 43.1404ZM43.7985 2.95438C44.8818 3.42974 45.5133 5.06632 45.531 7.44452C45.5489 9.84967 44.9445 12.701 43.8173 15.5797L39.0581 18.5502L35.5762 12.5195C35.295 12.0325 34.956 11.6328 34.5782 11.3324C37.6598 5.33192 41.8602 2.10413 43.7985 2.95438ZM63.3377 45.8459C63.3179 46.102 63.0147 46.4003 62.5466 46.6244L53.8887 50.7681C53.3622 51.02 53.1242 51.6394 53.3464 52.1791L57.0009 61.0543C57.1938 61.5228 57.2241 61.9293 57.082 62.1416C56.97 62.3087 56.6932 62.4046 56.3221 62.4046H56.322C56.2141 62.4046 56.0987 62.3965 55.9789 62.3804L46.4653 61.1075C45.8864 61.03 45.3484 61.418 45.2389 61.9913L43.4376 71.419C43.3933 71.6503 43.2127 72.4049 42.7432 72.4049C42.5003 72.4049 42.177 72.246 41.8563 71.969L34.5924 65.695C34.1507 65.3134 33.4878 65.3434 33.0823 65.7631L26.4131 72.6658C26.0963 72.9937 25.7721 73.1818 25.5237 73.1818C25.1765 73.1818 24.9163 72.7058 24.7888 72.2604L22.1455 63.0332C22.0079 62.5527 21.5694 62.2359 21.0889 62.2359C21.0081 62.2359 20.9263 62.2448 20.8446 62.2634L11.4845 64.3879C11.2999 64.4299 11.1272 64.4511 10.9711 64.4511C10.762 64.4511 10.485 64.4136 10.3536 64.2353C10.2038 64.0321 10.2014 63.6299 10.3472 63.1594L13.1874 53.9909C13.3602 53.4333 13.0673 52.8379 12.5203 52.6344L3.52451 49.2873C3.03809 49.1064 2.70935 48.8366 2.66651 48.5834C2.62372 48.3302 2.84559 47.9674 3.24549 47.6367L10.6421 41.5195C11.0919 41.1475 11.1728 40.489 10.8265 40.0192L5.13161 32.2931C4.82361 31.8753 4.69623 31.4696 4.79908 31.2342C4.90193 30.9989 5.28621 30.8168 5.802 30.759L15.3407 29.69C15.9207 29.625 16.3489 29.1183 16.3164 28.5355L15.7811 18.9522C15.7554 18.4932 15.8388 18.1262 16.0098 17.9453C16.0656 17.8864 16.1656 17.8081 16.3896 17.8081C16.5456 17.8081 16.8098 17.8476 17.1819 18.0355L25.7491 22.3636C26.2703 22.6269 26.9059 22.4372 27.1978 21.9318L31.9967 13.6195C32.2563 13.17 32.577 12.8908 32.8338 12.8908C33.0907 12.8908 33.4115 13.17 33.6711 13.6195L37.7221 20.6362C37.7959 20.764 37.8947 20.8757 38.0126 20.9645C38.1306 21.0534 38.2651 21.1176 38.4084 21.1534C38.5516 21.1891 38.7006 21.1957 38.8464 21.1727C38.9923 21.1496 39.132 21.0975 39.2572 21.0193L42.0876 19.2527C40.8796 21.4185 39.4734 23.2679 38.0038 24.6001C37.7831 24.8006 37.5552 24.9929 37.3205 25.1768C36.5743 23.5337 34.9191 22.3876 33.0001 22.3876C30.3844 22.3876 28.2566 24.5155 28.2566 27.1311C28.2566 29.7466 30.3845 31.8745 33.0001 31.8745C35.4637 31.8745 37.494 29.9863 37.7216 27.5812C38.3018 27.2164 38.8904 26.7657 39.4814 26.23C41.7221 24.1987 43.8102 21.1335 45.361 17.5991C45.4382 17.4227 45.5139 17.2456 45.588 17.0679L46.1302 16.7294C46.4417 16.535 46.7415 16.4279 46.9747 16.4279C47.4933 16.4279 47.5941 17.1097 47.608 17.5163L47.9382 27.109C47.9582 27.6923 48.4304 28.1585 49.014 28.1709L58.61 28.3763C59.1288 28.3874 59.5279 28.5342 59.6516 28.7593C59.7752 28.9844 59.6848 29.4 59.4158 29.8438L54.4397 38.0516C54.1371 38.5507 54.2771 39.1993 54.7585 39.5292L62.6759 44.9551C63.1038 45.2486 63.3575 45.5899 63.3377 45.8459ZM30.5656 26.3948C31.1769 27.5115 31.972 28.086 32.6426 28.3801C33.1604 28.6073 33.7126 28.7196 34.2913 28.7195C34.5334 28.7195 34.7801 28.6995 35.0307 28.6604C34.5661 29.2758 33.8287 29.6745 33 29.6745C31.5976 29.6745 30.4566 28.5335 30.4566 27.1311C30.4566 26.8751 30.495 26.628 30.5656 26.3948ZM33.5264 26.3655C32.8725 26.0786 32.468 25.4181 32.2176 24.7113C32.4703 24.6293 32.7343 24.5876 33 24.5876C34.1115 24.5876 35.0582 25.3047 35.4033 26.3003C34.6834 26.5639 34.0426 26.592 33.5264 26.3655Z" fill="#6B8B3D"/>
<path d="M19.9289 42.0685C18.2646 41.4243 17.7304 40.9206 17.7304 39.9958C17.7304 39.2206 18.3512 38.4384 19.7382 38.4384C20.733 38.4384 21.3706 38.7342 21.3766 38.737C21.4735 38.7833 21.5748 38.8068 21.6779 38.8067C21.9684 38.8067 22.2159 38.6221 22.3085 38.3365L22.5864 37.4784L22.4473 37.4017C22.1321 37.2278 21.2422 36.8233 19.7901 36.8233C18.642 36.8233 17.6487 37.1506 16.9175 37.7698C16.199 38.3783 15.8034 39.2303 15.8034 40.1691C15.8034 41.7664 16.8592 42.908 19.0312 43.6591C20.5623 44.2485 21.105 44.8089 21.105 45.7999C21.105 46.9101 20.2428 47.5998 18.8547 47.5998C17.9422 47.5998 16.9707 47.3262 16.2558 46.8679L16.0439 46.7321L15.7351 47.7123C15.6146 48.0949 15.8187 48.5292 16.1901 48.6805C16.2471 48.7037 17.6 49.2496 18.7507 49.2496C20.0863 49.2496 21.1926 48.8815 21.9497 48.1852C22.6365 47.5537 23.0146 46.6635 23.0146 45.6785C23.0146 43.9795 22.121 42.9338 19.9289 42.0685ZM30.1635 37.6474C30.039 37.2824 29.6394 36.9965 29.2537 36.9965H28.5346C28.1489 36.9965 27.7495 37.2826 27.6254 37.6478L24.0117 48.2837C23.945 48.4797 23.9679 48.6771 24.0741 48.8255C24.1804 48.9737 24.36 49.0588 24.5671 49.0588H25.0436C25.4304 49.0588 25.8272 48.7707 25.9469 48.4029L26.8019 45.7759C26.8695 45.5681 27.1206 45.3859 27.3391 45.3859H30.3799C30.5994 45.3859 30.8539 45.5682 30.9245 45.776L31.8181 48.4075C31.9422 48.7727 32.3416 49.0588 32.7273 49.0588H33.2386C33.4457 49.0588 33.6253 48.9737 33.7315 48.8254C33.8375 48.6771 33.8601 48.4796 33.7932 48.2836L30.1635 37.6474ZM30.2479 43.7502C30.2144 43.797 30.1505 43.8228 30.068 43.8228H27.6509C27.5684 43.8228 27.5044 43.7969 27.4707 43.75C27.437 43.7031 27.4331 43.6342 27.4596 43.556L28.4279 40.695C28.6103 40.1195 28.7876 39.4338 28.8488 39.1925C28.941 39.523 29.0357 39.8528 29.1331 40.1819C29.22 40.4739 29.3708 40.9472 29.4694 41.2368L30.2586 43.5566C30.2852 43.6347 30.2814 43.7035 30.2479 43.7502ZM41.4504 47.4092H37.5606C37.4658 47.409 37.375 47.3713 37.3079 47.3043C37.2409 47.2373 37.2032 47.1464 37.2031 47.0517V37.739C37.2031 37.3296 36.87 36.9965 36.4606 36.9965H36.036C35.6266 36.9965 35.2935 37.3296 35.2935 37.739V48.3164C35.2935 48.7258 35.6266 49.0589 36.036 49.0589H41.4503C41.8598 49.0589 42.1929 48.7258 42.1929 48.3164V48.1517C42.1929 47.7422 41.8598 47.4092 41.4504 47.4092ZM49.6967 47.4265H45.7377C45.6429 47.4264 45.552 47.3887 45.485 47.3216C45.418 47.2546 45.3803 47.1638 45.3802 47.069V43.9416C45.3802 43.7444 45.5406 43.5841 45.7377 43.5841H49.1596C49.569 43.5841 49.9021 43.251 49.9021 42.8416V42.6941C49.9021 42.2847 49.569 41.9516 49.1596 41.9516H45.7377C45.6429 41.9515 45.552 41.9138 45.485 41.8468C45.418 41.7798 45.3803 41.6889 45.3802 41.5941V38.9865C45.3802 38.7893 45.5406 38.629 45.7377 38.629H49.4368C49.8463 38.629 50.1794 38.2959 50.1794 37.8865V37.739C50.1794 37.3296 49.8463 36.9965 49.4368 36.9965H44.213C43.8036 36.9965 43.4705 37.3296 43.4705 37.739V48.3164C43.4705 48.7258 43.8036 49.0589 44.213 49.0589H49.6967C50.1062 49.0589 50.4392 48.7258 50.4392 48.3164V48.1689C50.4392 47.7596 50.1062 47.4265 49.6967 47.4265Z" fill="#6B8B3D"/>
</svg>
