<svg width="13" height="8" viewBox="0 0 13 8" fill="none" xmlns="http://www.w3.org/2000/svg">
<path d="M7.51132 7.7555C7.51882 7.7465 7.52182 7.7345 7.52932 7.7255L12.7658 1.94C13.0583 1.6145 13.0583 1.0865 12.7658 0.761C12.7628 0.758 12.7598 0.7565 12.7568 0.755C12.6917 0.676183 12.6102 0.612528 12.518 0.568483C12.4258 0.524438 12.325 0.501066 12.2228 0.5H1.74833C1.64424 0.501682 1.5418 0.526197 1.44823 0.571815C1.35467 0.617432 1.27226 0.683039 1.20683 0.764L1.20383 0.761C1.06227 0.924778 0.984375 1.13403 0.984375 1.3505C0.984375 1.56697 1.06227 1.77622 1.20383 1.94L6.45233 7.7555C6.51767 7.83209 6.59884 7.8936 6.69026 7.93577C6.78167 7.97794 6.88115 7.99979 6.98182 7.99979C7.0825 7.99979 7.18198 7.97794 7.27339 7.93577C7.36481 7.8936 7.44598 7.83209 7.51132 7.7555Z" fill="#6B8B3D"/>
</svg>
