<svg width="37" height="37" viewBox="0 0 37 37" fill="none" xmlns="http://www.w3.org/2000/svg">
<g clip-path="url(#clip0_0_428)">
<path fill-rule="evenodd" clip-rule="evenodd" d="M1.80617 3.34783C2.96265 2.19136 4.53116 1.54166 6.16667 1.54166H30.8333C32.4689 1.54166 34.0374 2.19136 35.1938 3.34783C36.3503 4.50431 37 6.07281 37 7.70832V23.125C37 24.7605 36.3503 26.329 35.1938 27.4854C34.0374 28.642 32.4689 29.2917 30.8333 29.2917H20.6802L14.9651 35.0068C14.5242 35.4477 13.8611 35.5797 13.285 35.341C12.7089 35.1024 12.3333 34.5403 12.3333 33.9167V29.2917H6.16667C4.53116 29.2917 2.96265 28.642 1.80617 27.4854C0.6497 26.329 0 24.7605 0 23.125V7.70832C0 6.07281 0.6497 4.50431 1.80617 3.34783ZM6.16667 4.62499C5.34892 4.62499 4.56466 4.94983 3.98643 5.52808C3.40818 6.10632 3.08333 6.89058 3.08333 7.70832V23.125C3.08333 23.9427 3.40818 24.7269 3.98643 25.3052C4.56466 25.8835 5.34892 26.2083 6.16667 26.2083H13.875C14.7264 26.2083 15.4167 26.8985 15.4167 27.75V30.1948L18.9516 26.6599C19.2406 26.3708 19.6328 26.2083 20.0417 26.2083H30.8333C31.651 26.2083 32.4353 25.8835 33.0136 25.3052C33.5918 24.7269 33.9167 23.9427 33.9167 23.125V7.70832C33.9167 6.89058 33.5918 6.10632 33.0136 5.52808C32.4353 4.94983 31.651 4.62499 30.8333 4.62499H6.16667Z" fill="white"/>
<path fill-rule="evenodd" clip-rule="evenodd" d="M7.70837 12.3333C7.70837 11.4819 8.39861 10.7917 9.25004 10.7917H20.0417C20.8932 10.7917 21.5834 11.4819 21.5834 12.3333C21.5834 13.1848 20.8932 13.875 20.0417 13.875H9.25004C8.39861 13.875 7.70837 13.1848 7.70837 12.3333ZM7.70837 18.5C7.70837 17.6485 8.39861 16.9583 9.25004 16.9583H27.75C28.6015 16.9583 29.2917 17.6485 29.2917 18.5C29.2917 19.3515 28.6015 20.0417 27.75 20.0417H9.25004C8.39861 20.0417 7.70837 19.3515 7.70837 18.5Z" fill="white"/>
</g>
<defs>
<clipPath id="clip0_0_428">
<rect width="37" height="37" fill="white"/>
</clipPath>
</defs>
</svg>
