<svg width="48" height="48" viewBox="0 0 48 48" fill="none" xmlns="http://www.w3.org/2000/svg">
<g clip-path="url(#clip0_0_422)">
<path d="M39.83 26.0563C39.054 25.0763 39.276 24.6403 39.83 23.7643C39.84 23.7543 46.246 14.9023 46.906 11.9003L46.91 11.8983C47.238 10.8043 46.91 10.0003 45.324 10.0003H40.076C38.74 10.0003 38.124 10.6903 37.794 11.4623C37.794 11.4623 35.122 17.8583 31.342 22.0043C30.122 23.2023 29.558 23.5863 28.892 23.5863C28.564 23.5863 28.054 23.2023 28.054 22.1083V11.8983C28.054 10.5863 27.68 10.0003 26.574 10.0003H18.322C17.484 10.0003 16.986 10.6123 16.986 11.1823C16.986 12.4263 18.876 12.7123 19.072 16.2123V23.8063C19.072 25.4703 18.77 25.7763 18.1 25.7763C16.316 25.7763 11.986 19.3543 9.42 12.0043C8.902 10.5783 8.396 10.0023 7.05 10.0023H1.8C0.302 10.0023 0 10.6923 0 11.4643C0 12.8283 1.784 19.6103 8.296 28.5703C12.636 34.6863 18.748 38.0003 24.308 38.0003C27.65 38.0003 28.058 37.2643 28.058 35.9983C28.058 30.1543 27.756 29.6023 29.43 29.6023C30.206 29.6023 31.542 29.9863 34.662 32.9363C38.228 36.4343 38.814 38.0003 40.81 38.0003H46.058C47.554 38.0003 48.312 37.2643 47.876 35.8123C46.878 32.7583 40.134 26.4763 39.83 26.0563Z" fill="white"/>
</g>
<defs>
<clipPath id="clip0_0_422">
<rect width="48" height="48" fill="white"/>
</clipPath>
</defs>
</svg>
