<svg width="43" height="43" viewBox="0 0 43 43" fill="none" xmlns="http://www.w3.org/2000/svg">
<g clip-path="url(#clip0_0_424)">
<path d="M0.935475 32.0244C1.81339 35.1384 4.4991 35.7081 4.67827 35.8174C9.09831 37.0214 33.8735 37.025 38.3598 35.8174C41.4325 34.9287 41.9969 32.2036 42.1026 32.0244C43.2726 25.8002 43.3496 17.6857 42.0489 10.623L42.1026 10.9741C41.2247 7.86023 38.539 7.29048 38.3598 7.18119C33.9989 5.99689 9.15923 5.9521 4.67827 7.18119C1.60556 8.07164 1.04118 10.795 0.935475 10.9741C-0.3169 17.5155 -0.379609 25.0208 0.935475 32.0244ZM17.2146 28.0416V14.9749L28.4411 21.5181L17.2146 28.0416Z" fill="white"/>
</g>
<defs>
<clipPath id="clip0_0_424">
<rect width="43" height="43" fill="white"/>
</clipPath>
</defs>
</svg>
